<svg viewBox="0 0 292 110" xmlns="http://www.w3.org/2000/svg"><g fill="#aaa" fill-rule="evenodd" transform="translate(10 17)" stroke="#aaa"><path d="m163.3 32.609l-3.947 13.997 12.713-6.972c-1.846-3.388-4.997-5.949-8.765-7.02"/><path d="m141.01 23.16c-1.7-1.709-4.459-1.708-6.159 0l-.77.774c-1.7 1.708-1.699 4.481 0 6.19l.82.823c1.745-2.814 3.967-5.298 6.549-7.343l-.44-.443"/><path d="m167.62 18.881c.007-.094.027-.184.027-.28v-2.188c-.001-2.416-1.95-4.376-4.354-4.377h-7.621c-2.404.001-4.353 1.96-4.353 4.377v2.15c2.427-.683 4.979-1.056 7.62-1.056 3.03 0 5.944.486 8.682 1.374"/><path d="m159.25 28.819c9.554 0 17.327 7.779 17.327 17.339 0 9.56-7.773 17.339-17.327 17.339-9.554 0-17.327-7.779-17.327-17.339 0-9.56 7.773-17.339 17.327-17.339m-24.26 17.339c0 13.405 10.859 24.274 24.26 24.274 13.399 0 24.26-10.869 24.26-24.274 0-13.405-10.859-24.274-24.26-24.274-13.399 0-24.26 10.869-24.26 24.274"/><path d="m48.23 69.12c-1-2.66-1.94-5.274-2.822-7.844-.882-2.57-1.794-5.185-2.733-7.844h-27.688l-5.555 15.688h-8.906c2.35-6.499 4.555-12.511 6.613-18.04 2.057-5.524 4.069-10.769 6.04-15.731 1.968-4.964 3.923-9.705 5.863-14.225 1.94-4.52 3.968-8.995 6.084-13.427h7.848c2.116 4.431 4.144 8.907 6.084 13.427 1.94 4.52 3.894 9.261 5.864 14.225 1.968 4.962 3.981 10.206 6.04 15.731 2.057 5.526 4.262 11.537 6.613 18.04h-9.347m-8.02-22.777c-1.882-5.142-3.748-10.118-5.599-14.934-1.853-4.815-3.779-9.438-5.776-13.871-2.059 4.432-4.01 9.06-5.863 13.871-1.852 4.817-3.69 9.793-5.512 14.934h22.75"/><path d="m79.09 70c-5.056-.118-8.64-1.21-10.757-3.279-2.117-2.067-3.173-5.287-3.173-9.66v-55.3l8.198-1.418v55.39c0 1.361.119 2.483.353 3.369.236.885.618 1.595 1.146 2.127.529.531 1.236.93 2.117 1.196.883.266 1.969.488 3.261.665l-1.146 6.912"/><path d="m118.15 64.51c-.704.475-2.072 1.079-4.1 1.817-2.028.739-4.395 1.108-7.099 1.108-2.763 0-5.365-.444-7.803-1.329-2.44-.887-4.571-2.261-6.393-4.122-1.822-1.862-3.263-4.18-4.321-6.957-1.057-2.777-1.587-6.086-1.587-9.926 0-3.368.499-6.456 1.499-9.262.999-2.805 2.454-5.229 4.365-7.267 1.909-2.038 4.246-3.634 7.01-4.786 2.763-1.152 5.878-1.729 9.347-1.729 3.821 0 7.157.282 10.01.843 2.851.562 5.246 1.079 7.186 1.55v41.12c0 7.09-1.821 12.23-5.466 15.42-3.647 3.191-9.172 4.785-16.578 4.785-2.88 0-5.599-.234-8.156-.707-2.557-.475-4.777-1.034-6.657-1.684l1.499-7.179c1.645.648 3.659 1.225 6.04 1.728 2.381.501 4.864.754 7.45.754 4.879 0 8.391-.975 10.538-2.926 2.146-1.949 3.218-5.05 3.218-9.306v-1.95m-3.394-34.875c-1.383-.206-3.248-.311-5.599-.311-4.409 0-7.804 1.45-10.185 4.344-2.381 2.895-3.571 6.735-3.571 11.521 0 2.66.336 4.935 1.013 6.825.676 1.892 1.587 3.455 2.733 4.697 1.146 1.24 2.469 2.157 3.968 2.746 1.499.592 3.043.886 4.63.886 2.174 0 4.173-.31 5.995-.93 1.821-.621 3.263-1.344 4.321-2.171v-26.943c-.824-.236-1.925-.457-3.306-.665"/><path d="m205.87 70c-5.057-.119-8.641-1.21-10.758-3.279-2.116-2.067-3.174-5.288-3.174-9.66v-55.3l8.202-1.418v55.39c0 1.361.116 2.483.352 3.369.235.886.617 1.595 1.147 2.127.528.532 1.232.931 2.115 1.197.882.266 1.968.487 3.263.664l-1.146 6.913"/><path d="m220.25 14.699c-1.469 0-2.719-.488-3.746-1.462-1.03-.976-1.544-2.289-1.544-3.944 0-1.654.514-2.97 1.544-3.943 1.027-.976 2.277-1.463 3.746-1.463 1.47 0 2.719.487 3.749 1.463 1.027.974 1.543 2.289 1.543 3.943 0 1.655-.516 2.968-1.543 3.944-1.03.974-2.28 1.462-3.749 1.462m-4.055 8.331h8.2v46.09h-8.2v-46.09"/><path d="m253.31 21.878c3.292 0 6.069.43 8.333 1.286 2.262.857 4.084 2.068 5.466 3.633 1.381 1.567 2.367 3.428 2.954 5.585.587 2.157.882 4.534.882 7.134v28.805c-.705.118-1.691.28-2.953.487-1.265.207-2.69.398-4.277.576-1.587.177-3.307.339-5.158.487-1.853.147-3.69.222-5.512.222-2.588 0-4.967-.266-7.142-.798-2.175-.532-4.056-1.374-5.643-2.525-1.587-1.152-2.822-2.673-3.703-4.565-.882-1.891-1.323-4.166-1.323-6.824 0-2.54.514-4.727 1.544-6.558 1.027-1.831 2.423-3.308 4.188-4.431 1.764-1.122 3.821-1.95 6.172-2.482 2.35-.532 4.819-.798 7.407-.798.822 0 1.675.044 2.557.132.882.089 1.72.209 2.513.356.794.148 1.485.28 2.074.398.587.119.998.208 1.233.266v-2.304c0-1.359-.147-2.703-.441-4.03-.295-1.329-.824-2.51-1.587-3.544-.764-1.034-1.808-1.861-3.131-2.483-1.323-.619-3.043-.93-5.158-.93-2.705 0-5.07.193-7.099.577-2.027.384-3.541.783-4.541 1.196l-.97-6.824c1.058-.472 2.823-.93 5.291-1.373 2.469-.444 5.144-.665 8.02-.665m.705 41.3c1.94 0 3.66-.045 5.159-.133 1.499-.089 2.748-.249 3.747-.487v-13.737c-.589-.294-1.544-.546-2.865-.753-1.324-.207-2.925-.312-4.806-.312-1.234 0-2.543.09-3.923.267-1.381.177-2.646.547-3.792 1.107-1.147.562-2.103 1.329-2.866 2.305-.764.974-1.146 2.259-1.146 3.855 0 2.954.939 5.01 2.822 6.159 1.881 1.153 4.438 1.729 7.671 1.729"/></g></svg>