<svg viewBox="0 0 400 86" width="400px" height="86px" xmlns="http://www.w3.org/2000/svg"><g fill="none" fill-rule="evenodd"><g fill="#1d143e"><circle cx="48.5" cy="43" r="9"/><path d="m65.39 52.75c13.255-22.958 16.439-45.934 7.113-51.32-9.327-5.385-27.633 8.861-40.887 31.819-13.255 22.958-16.439 45.934-7.113 51.32 9.327 5.385 27.633-8.861 40.887-31.819m-31.18-18c12.499-21.648 29.537-34.908 36.789-30.721 7.252 4.187 4.288 25.573-8.211 47.22-12.499 21.648-29.537 34.908-36.789 30.721-7.252-4.187-4.288-25.573 8.211-47.22"/><path d="m65.39 33.25c-13.255-22.958-31.561-37.2-40.887-31.819-9.327 5.385-6.142 28.361 7.113 51.32 13.255 22.958 31.561 37.2 40.887 31.819 9.327-5.385 6.142-28.361-7.113-51.32m-31.18 18c-12.499-21.648-15.463-43.03-8.211-47.22 7.252-4.187 24.291 9.07 36.789 30.721 12.499 21.648 15.463 43.03 8.211 47.22-7.252 4.187-24.291-9.07-36.789-30.721"/><path d="m48.5 23.5c-26.51 0-48 8.73-48 19.5 0 10.77 21.49 19.5 48 19.5 26.51 0 48-8.73 48-19.5 0-10.77-21.49-19.5-48-19.5m0 36c-24.997 0-45-8.126-45-16.5 0-8.374 20-16.5 45-16.5 24.997 0 45 8.126 45 16.5 0 8.374-20 16.5-45 16.5"/><path d="m125.68 27.468h5.428c2.675 0 4.7-.551 6.077-1.652 1.377-1.101 2.065-2.753 2.065-4.956 0-2.242-.688-3.796-2.065-4.661-1.377-.865-3.402-1.298-6.077-1.298h-5.428v12.567m14.16 20.532l-8.319-15.1h-5.841v15.1h-6.844v-38.586h12.98c2.01 0 3.874.197 5.605.59 1.731.393 3.235 1.032 4.513 1.918 1.278.885 2.281 2.055 3.01 3.511.728 1.455 1.091 3.265 1.091 5.428 0 2.95-.698 5.33-2.095 7.139-1.396 1.809-3.274 3.107-5.635 3.894l9.204 16.11h-7.67m10.351-14.455c0-2.36.374-4.484 1.121-6.372.747-1.888 1.74-3.481 2.98-4.779 1.239-1.298 2.665-2.301 4.278-3.01 1.613-.708 3.265-1.062 4.956-1.062 1.967 0 3.697.334 5.192 1 1.495.669 2.743 1.613 3.746 2.832 1 1.219 1.76 2.675 2.272 4.366.511 1.691.767 3.54.767 5.546 0 1.337-.098 2.399-.295 3.186h-18.408c.315 2.635 1.229 4.661 2.744 6.077 1.514 1.416 3.451 2.124 5.811 2.124 1.259 0 2.429-.187 3.511-.56 1.082-.374 2.153-.895 3.215-1.564l2.301 4.248c-1.377.905-2.911 1.652-4.602 2.242-1.691.59-3.461.885-5.31.885-2.01 0-3.874-.344-5.605-1.032-1.731-.688-3.245-1.681-4.543-2.98-1.298-1.298-2.311-2.881-3.038-4.749-.728-1.868-1.091-4-1.091-6.401m19.411-2.596c0-2.321-.482-4.13-1.446-5.428-.964-1.298-2.448-1.947-4.454-1.947-1.731 0-3.245.619-4.543 1.858-1.298 1.239-2.104 3.078-2.419 5.517h12.862m9.643 9.263c0-3.107 1.357-5.507 4.071-7.198 2.714-1.691 7.04-2.871 12.98-3.54 0-.747-.098-1.465-.295-2.154-.197-.688-.501-1.298-.914-1.829-.413-.531-.944-.944-1.593-1.239-.649-.295-1.465-.443-2.448-.443-1.455 0-2.861.275-4.219.826-1.357.551-2.665 1.219-3.923 2.01l-2.478-4.543c1.613-1.023 3.412-1.908 5.399-2.655 1.986-.747 4.14-1.121 6.46-1.121 3.658 0 6.372 1.072 8.142 3.215 1.77 2.144 2.655 5.241 2.655 9.293v17.17h-5.546l-.531-3.186h-.177c-1.298 1.101-2.684 2.026-4.16 2.773-1.475.747-3.078 1.121-4.809 1.121-2.557 0-4.631-.777-6.224-2.331-1.593-1.554-2.389-3.609-2.389-6.165m6.608-.531c0 1.298.383 2.242 1.151 2.832.767.59 1.76.885 2.98.885 1.18 0 2.262-.275 3.245-.826.983-.551 2.01-1.337 3.068-2.36v-6.49c-1.967.236-3.619.551-4.956.944-1.337.393-2.409.836-3.216 1.328-.806.492-1.386 1.052-1.74 1.681-.354.629-.531 1.298-.531 2.01m22.8-6.136c0-2.399.393-4.543 1.18-6.431.787-1.888 1.849-3.481 3.186-4.779 1.337-1.298 2.881-2.291 4.632-2.98 1.75-.688 3.589-1.032 5.517-1.032 1.888 0 3.53.324 4.926.974 1.396.649 2.586 1.445 3.57 2.389l-3.245 4.307c-.787-.669-1.573-1.19-2.36-1.563-.787-.374-1.632-.561-2.537-.561-2.36 0-4.268.875-5.723 2.625-1.455 1.75-2.183 4.1-2.183 7.05 0 2.911.718 5.241 2.154 6.991 1.436 1.75 3.294 2.626 5.576 2.626 1.18 0 2.271-.246 3.274-.737 1-.492 1.898-1.072 2.685-1.741l2.832 4.307c-1.377 1.219-2.891 2.144-4.543 2.773-1.652.629-3.304.944-4.956.944-1.967 0-3.805-.334-5.517-1-1.711-.669-3.196-1.652-4.454-2.95-1.259-1.298-2.242-2.891-2.95-4.779-.708-1.888-1.062-4.03-1.062-6.431m29.349-9.145h-4.13v-5.074l4.484-.295.826-7.906h5.664v7.906h7.375v5.369h-7.375v13.806c0 3.383 1.357 5.074 4.071 5.074.511 0 1.032-.059 1.563-.177.531-.118 1.013-.275 1.446-.472l1.18 5.02c-.787.275-1.681.521-2.685.737-1 .216-2.075.325-3.215.325-1.691 0-3.117-.256-4.278-.767-1.16-.511-2.104-1.229-2.832-2.154-.728-.924-1.259-2.026-1.593-3.304-.334-1.278-.502-2.704-.502-4.277v-13.806m19.437 19.706c0-1.337.423-2.439 1.269-3.304.846-.865 1.898-1.298 3.156-1.298 1.259 0 2.301.433 3.127 1.298.826.865 1.239 1.967 1.239 3.304 0 1.337-.413 2.439-1.239 3.304-.826.865-1.868 1.298-3.127 1.298-1.259 0-2.311-.433-3.156-1.298-.846-.865-1.269-1.967-1.269-3.304m22.8 6.254v9.09h-6.785v-40.41h5.605l.472 3.068h.236c1.219-1.023 2.576-1.908 4.071-2.655 1.495-.747 3.048-1.121 4.661-1.121 1.809 0 3.412.344 4.809 1.032 1.396.688 2.586 1.681 3.57 2.98.983 1.298 1.731 2.852 2.242 4.661.511 1.809.767 3.835.767 6.077 0 2.478-.344 4.69-1.032 6.638-.688 1.947-1.603 3.579-2.743 4.897-1.141 1.318-2.458 2.33-3.953 3.038-1.495.708-3.048 1.062-4.661 1.062-1.259 0-2.517-.275-3.776-.826-1.259-.551-2.478-1.337-3.658-2.36l.177 4.838m0-9.676c1.062.905 2.085 1.534 3.068 1.888.983.354 1.908.531 2.773.531 1.927 0 3.54-.836 4.838-2.508 1.298-1.672 1.947-4.159 1.947-7.464 0-2.911-.492-5.172-1.475-6.785-.983-1.613-2.576-2.419-4.779-2.419-2.045 0-4.169 1.082-6.372 3.245v13.511m23.744-.472c0-3.107 1.357-5.507 4.071-7.198 2.714-1.691 7.04-2.871 12.98-3.54 0-.747-.098-1.465-.295-2.154-.197-.688-.501-1.298-.914-1.829-.413-.531-.944-.944-1.593-1.239-.649-.295-1.465-.443-2.448-.443-1.455 0-2.861.275-4.219.826-1.357.551-2.665 1.219-3.924 2.01l-2.478-4.543c1.613-1.023 3.412-1.908 5.398-2.655 1.986-.747 4.14-1.121 6.461-1.121 3.658 0 6.372 1.072 8.142 3.215 1.77 2.144 2.655 5.241 2.655 9.293v17.17h-5.546l-.531-3.186h-.177c-1.298 1.101-2.684 2.026-4.159 2.773-1.475.747-3.078 1.121-4.809 1.121-2.557 0-4.631-.777-6.224-2.331-1.593-1.554-2.389-3.609-2.389-6.165m6.608-.531c0 1.298.383 2.242 1.15 2.832.767.59 1.76.885 2.98.885 1.18 0 2.262-.275 3.245-.826.983-.551 2.01-1.337 3.068-2.36v-6.49c-1.967.236-3.619.551-4.956.944-1.337.393-2.409.836-3.215 1.328-.806.492-1.386 1.052-1.74 1.681-.354.629-.531 1.298-.531 2.01m24.688-20.65h5.605l.472 5.133h.236c1.023-1.888 2.262-3.333 3.717-4.337 1.455-1 2.95-1.505 4.484-1.505 1.377 0 2.478.197 3.304.59l-1.18 5.9c-.511-.157-.983-.275-1.416-.354-.433-.079-.964-.118-1.593-.118-1.141 0-2.34.442-3.599 1.328-1.259.885-2.34 2.429-3.245 4.631v17.7h-6.785v-28.969m22.21 5.369h-4.13v-5.074l4.484-.295.826-7.906h5.664v7.906h7.375v5.369h-7.375v13.806c0 3.383 1.357 5.074 4.071 5.074.511 0 1.032-.059 1.563-.177.531-.118 1.013-.275 1.446-.472l1.18 5.02c-.787.275-1.681.521-2.685.737-1 .216-2.075.325-3.216.325-1.691 0-3.117-.256-4.277-.767-1.16-.511-2.104-1.229-2.832-2.154-.728-.924-1.259-2.026-1.593-3.304-.334-1.278-.502-2.704-.502-4.277v-13.806m19.791 15.93c1.298 1.023 2.586 1.819 3.865 2.389 1.278.57 2.665.856 4.159.856 1.573 0 2.734-.324 3.481-.974.747-.649 1.121-1.485 1.121-2.508 0-.59-.177-1.111-.531-1.563-.354-.452-.826-.855-1.416-1.21-.59-.354-1.259-.678-2.01-.974-.747-.295-1.495-.6-2.242-.914-.944-.354-1.908-.767-2.891-1.239-.983-.472-1.858-1.042-2.625-1.711-.767-.669-1.396-1.445-1.888-2.33-.492-.885-.737-1.937-.737-3.157 0-2.557.944-4.641 2.832-6.254 1.888-1.613 4.464-2.419 7.729-2.419 2.01 0 3.815.354 5.428 1.062 1.613.708 3.01 1.514 4.189 2.419l-3.127 4.13c-1.023-.747-2.055-1.347-3.098-1.8-1.042-.452-2.134-.678-3.274-.678-1.455 0-2.527.305-3.216.915-.688.61-1.032 1.367-1.032 2.271 0 .551.167 1.032.501 1.445.334.413.777.787 1.328 1.121.551.334 1.19.639 1.917.915.728.275 1.485.551 2.272.826.983.354 1.967.757 2.95 1.209.983.452 1.878 1.013 2.684 1.682.806.669 1.455 1.485 1.947 2.448.492.964.738 2.114.738 3.452 0 1.259-.246 2.429-.738 3.511-.492 1.082-1.209 2.026-2.154 2.832-.944.806-2.124 1.445-3.54 1.917-1.416.472-3.03.708-4.838.708-2.01 0-3.982-.383-5.93-1.151-1.947-.767-3.628-1.721-5.04-2.861l3.186-4.366"/></g><path d="m125.87 74.55l-.666-2.15c-.244-.788-.48-1.573-.71-2.354-.229-.781-.459-1.58-.688-2.397h-.086c-.229.817-.459 1.616-.688 2.397-.229.781-.466 1.566-.71 2.354l-.688 2.15h4.236m.451 1.441h-5.138l-1.355 4.3h-1.828l4.773-14.1h2.02l4.773 14.1h-1.892l-1.355-4.3m8.713-.903c0-.874.136-1.652.409-2.333.272-.681.638-1.258 1.096-1.731.459-.473.993-.831 1.602-1.075.609-.244 1.251-.365 1.924-.365.688 0 1.279.125 1.774.376.495.251.921.541 1.279.871l-.882 1.139c-.315-.272-.641-.494-.978-.666-.337-.172-.713-.258-1.129-.258-.473 0-.91.097-1.311.29-.401.194-.745.469-1.032.828-.287.358-.512.785-.677 1.279-.165.495-.247 1.043-.247 1.645 0 .602.079 1.147.237 1.634.158.487.376.907.656 1.258.28.351.62.623 1.021.817.401.194.838.29 1.311.29.502 0 .957-.104 1.365-.312.409-.208.77-.455 1.086-.742l.796 1.161c-.473.416-1 .745-1.58.989-.581.244-1.186.366-1.817.366-.688 0-1.333-.122-1.935-.366-.602-.244-1.122-.598-1.559-1.064-.437-.466-.781-1.039-1.032-1.72-.251-.681-.376-1.451-.376-2.311m9.914 2.494c0-1.147.512-2.025 1.537-2.634 1.025-.609 2.655-1.036 4.891-1.279 0-.33-.032-.652-.097-.968-.065-.315-.179-.595-.344-.838-.165-.244-.383-.441-.656-.591-.272-.151-.623-.226-1.053-.226-.616 0-1.186.115-1.709.344-.523.229-.993.487-1.408.774l-.71-1.225c.487-.315 1.082-.62 1.785-.914.702-.294 1.476-.441 2.322-.441 1.276 0 2.2.391 2.774 1.172.573.781.86 1.824.86 3.128v6.407h-1.462l-.15-1.247h-.043c-.502.416-1.043.77-1.623 1.064-.581.294-1.193.441-1.838.441-.889 0-1.623-.258-2.204-.774-.581-.516-.871-1.247-.871-2.193m1.742-.129c0 .602.176 1.032.527 1.29.351.258.785.387 1.301.387.502 0 .978-.118 1.43-.355.452-.237.928-.584 1.43-1.043v-2.903c-.874.115-1.612.251-2.214.409-.602.158-1.086.344-1.451.559-.366.215-.627.462-.785.742-.158.28-.237.584-.237.914m10.151-6.171h-1.548v-1.333l1.634-.108.215-2.924h1.483v2.924h2.817v1.441h-2.817v5.805c0 .645.118 1.143.355 1.494.237.351.656.527 1.258.527.186 0 .387-.029.602-.086.215-.057.408-.122.581-.194l.344 1.333c-.287.1-.598.19-.935.269-.337.079-.67.118-1 .118-.559 0-1.028-.086-1.408-.258-.38-.172-.688-.408-.924-.709-.237-.301-.405-.666-.505-1.097-.1-.43-.15-.903-.15-1.419v-5.784m6.13 6.3c0-1.147.512-2.025 1.537-2.634 1.025-.609 2.655-1.036 4.891-1.279 0-.33-.032-.652-.097-.968-.064-.315-.179-.595-.344-.838-.165-.244-.383-.441-.656-.591-.272-.151-.623-.226-1.054-.226-.616 0-1.186.115-1.709.344-.523.229-.993.487-1.408.774l-.709-1.225c.487-.315 1.082-.62 1.785-.914.702-.294 1.476-.441 2.322-.441 1.276 0 2.2.391 2.773 1.172.573.781.86 1.824.86 3.128v6.407h-1.462l-.15-1.247h-.043c-.502.416-1.043.77-1.623 1.064-.581.294-1.193.441-1.838.441-.889 0-1.623-.258-2.204-.774-.581-.516-.871-1.247-.871-2.193m1.742-.129c0 .602.176 1.032.527 1.29.351.258.785.387 1.301.387.502 0 .978-.118 1.43-.355.452-.237.928-.584 1.43-1.043v-2.903c-.874.115-1.612.251-2.215.409-.602.158-1.086.344-1.451.559-.366.215-.627.462-.785.742-.158.28-.237.584-.237.914m9.85-12.47h1.763v13.33c0 .287.05.487.15.602.1.115.215.172.344.172h.161c.05 0 .125-.014.226-.043l.237 1.333c-.115.057-.251.1-.409.129-.158.029-.358.043-.602.043-.674 0-1.154-.201-1.44-.602-.287-.401-.43-.989-.43-1.763v-13.201m4.776 10.11c0-.874.133-1.652.398-2.333.265-.681.62-1.258 1.064-1.731.444-.473.957-.831 1.537-1.075.581-.244 1.193-.365 1.838-.365.645 0 1.258.122 1.838.365.581.244 1.093.602 1.537 1.075.444.473.799 1.05 1.064 1.731.265.681.398 1.458.398 2.333 0 .86-.133 1.63-.398 2.311-.265.681-.62 1.254-1.064 1.72-.444.466-.957.821-1.537 1.064-.581.244-1.193.366-1.838.366-.645 0-1.258-.122-1.838-.366-.581-.244-1.093-.598-1.537-1.064-.444-.466-.799-1.039-1.064-1.72-.265-.681-.398-1.451-.398-2.311m1.827 0c0 .602.072 1.147.215 1.634.143.487.348.907.613 1.258.265.351.584.623.957.817.373.194.781.29 1.225.29.444 0 .853-.097 1.226-.29.373-.194.692-.466.957-.817.265-.351.469-.77.613-1.258.143-.487.215-1.032.215-1.634 0-.602-.072-1.15-.215-1.645-.143-.495-.348-.921-.613-1.279-.265-.358-.584-.634-.957-.828-.373-.194-.781-.29-1.226-.29-.444 0-.853.097-1.225.29-.373.194-.692.469-.957.828-.265.358-.469.785-.613 1.279-.143.495-.215 1.043-.215 1.645m11.419 6.966c0 .559.269 1 .806 1.333.538.33 1.279.495 2.225.495.502 0 .957-.061 1.365-.183.409-.122.756-.279 1.043-.473.287-.194.509-.419.667-.677.158-.258.236-.523.236-.796 0-.487-.179-.824-.537-1.01-.358-.186-.881-.279-1.57-.279h-1.806c-.201 0-.419-.011-.656-.032-.237-.022-.469-.068-.699-.14-.373.272-.645.559-.817.86-.172.301-.258.602-.258.903m-1.548.237c0-.444.136-.867.408-1.269.272-.401.645-.767 1.118-1.097v-.086c-.258-.158-.477-.376-.656-.656-.179-.28-.269-.627-.269-1.043 0-.444.122-.831.365-1.161.244-.33.502-.588.774-.774v-.086c-.344-.287-.656-.67-.935-1.15-.28-.48-.419-1.036-.419-1.666 0-.573.104-1.089.312-1.548.208-.459.491-.849.849-1.172.358-.323.778-.57 1.258-.742.48-.172.985-.258 1.516-.258.287 0 .555.025.806.075.251.05.477.111.677.183h3.633v1.355h-2.15c.244.244.448.552.613.924.165.373.247.781.247 1.226 0 .559-.1 1.064-.301 1.516-.201.452-.473.831-.817 1.139-.344.308-.749.548-1.215.72-.466.172-.964.258-1.494.258-.258 0-.523-.032-.796-.097-.272-.065-.53-.154-.774-.269-.186.158-.344.333-.473.527-.129.194-.194.434-.194.72 0 .33.129.602.387.817.258.215.745.323 1.462.323h2.02c1.218 0 2.132.197 2.741.591.609.394.914 1.028.914 1.903 0 .487-.122.95-.365 1.387-.244.437-.595.821-1.053 1.15-.459.33-1.014.591-1.666.785-.652.194-1.387.29-2.204.29-.645 0-1.233-.061-1.763-.183-.53-.122-.985-.305-1.365-.548-.38-.244-.674-.537-.881-.882-.208-.344-.312-.745-.312-1.204m4.321-6.493c.301 0 .584-.057.849-.172.265-.115.502-.279.709-.495.208-.215.369-.477.484-.785.115-.308.172-.656.172-1.043 0-.774-.215-1.372-.645-1.795-.43-.423-.953-.634-1.57-.634-.616 0-1.139.211-1.57.634-.43.423-.645 1.021-.645 1.795 0 .387.057.735.172 1.043.115.308.276.57.484.785.208.215.444.38.709.495.265.115.548.172.849.172m11.01-.709c0-.874.133-1.652.398-2.333.265-.681.62-1.258 1.064-1.731.444-.473.957-.831 1.537-1.075.581-.244 1.193-.365 1.838-.365.645 0 1.258.122 1.838.365.581.244 1.093.602 1.537 1.075.444.473.799 1.05 1.064 1.731.265.681.398 1.458.398 2.333 0 .86-.133 1.63-.398 2.311-.265.681-.62 1.254-1.064 1.72-.444.466-.957.821-1.537 1.064-.581.244-1.193.366-1.838.366-.645 0-1.258-.122-1.838-.366-.581-.244-1.093-.598-1.537-1.064-.444-.466-.799-1.039-1.064-1.72-.265-.681-.398-1.451-.398-2.311m1.828 0c0 .602.072 1.147.215 1.634.143.487.348.907.613 1.258.265.351.584.623.957.817.373.194.781.29 1.226.29.444 0 .853-.097 1.226-.29.373-.194.692-.466.957-.817.265-.351.469-.77.613-1.258.143-.487.215-1.032.215-1.634 0-.602-.072-1.15-.215-1.645-.143-.495-.348-.921-.613-1.279-.265-.358-.584-.634-.957-.828-.373-.194-.781-.29-1.226-.29-.444 0-.853.097-1.226.29-.373.194-.692.469-.957.828-.265.358-.469.785-.613 1.279-.143.495-.215 1.043-.215 1.645m15.375-8.665c-.387-.172-.781-.258-1.183-.258-.975 0-1.462.674-1.462 2.02v1.656h2.214v1.441h-2.214v9.01h-1.763v-9.01h-1.419v-1.333l1.419-.108v-1.656c0-1.075.247-1.921.742-2.537.495-.616 1.265-.924 2.311-.924.33 0 .641.032.935.097.294.065.563.147.806.247l-.387 1.355m7.96 6.45h2.365c1.104 0 1.946-.226 2.526-.677.581-.452.871-1.136.871-2.053 0-.932-.29-1.584-.871-1.957-.581-.373-1.423-.559-2.526-.559h-2.365v5.246m5.934 7.417l-3.397-5.956h-2.537v5.956h-1.806v-14.1h4.429c.717 0 1.376.068 1.978.204.602.136 1.122.362 1.559.677.437.315.778.724 1.021 1.225.244.502.365 1.118.365 1.849 0 1.104-.287 1.985-.86 2.645-.573.659-1.34 1.111-2.3 1.354l3.591 6.149h-2.043m3.615-5.203c0-.86.133-1.63.398-2.311.265-.681.616-1.258 1.054-1.731.437-.473.935-.835 1.494-1.086.559-.251 1.139-.376 1.742-.376.659 0 1.251.115 1.774.344.523.229.96.559 1.311.989.351.43.62.946.806 1.548.186.602.279 1.276.279 2.02 0 .387-.022.709-.064.968h-7.05c.072 1.132.419 2.028 1.043 2.688.624.659 1.437.989 2.44.989.502 0 .964-.075 1.387-.226.423-.151.828-.348 1.215-.591l.623 1.161c-.459.287-.967.537-1.526.752-.559.215-1.197.323-1.913.323-.702 0-1.358-.125-1.967-.376-.609-.251-1.139-.609-1.591-1.075-.452-.466-.806-1.036-1.064-1.709-.258-.674-.387-1.44-.387-2.3m7.31-.796c0-1.075-.226-1.896-.677-2.462-.452-.566-1.086-.849-1.903-.849-.373 0-.727.075-1.064.226-.337.151-.641.365-.914.645-.272.28-.498.623-.677 1.032-.179.409-.297.878-.355 1.408h5.59m3.378 3.29c0-1.147.512-2.025 1.537-2.634 1.025-.609 2.655-1.036 4.891-1.279 0-.33-.032-.652-.097-.968-.065-.315-.179-.595-.344-.838-.165-.244-.383-.441-.656-.591-.272-.151-.623-.226-1.053-.226-.616 0-1.186.115-1.709.344-.523.229-.993.487-1.408.774l-.709-1.225c.487-.315 1.082-.62 1.785-.914.702-.294 1.476-.441 2.322-.441 1.276 0 2.2.391 2.774 1.172.573.781.86 1.824.86 3.128v6.407h-1.462l-.151-1.247h-.043c-.502.416-1.043.77-1.623 1.064-.581.294-1.193.441-1.838.441-.889 0-1.623-.258-2.204-.774-.581-.516-.871-1.247-.871-2.193m1.742-.129c0 .602.176 1.032.527 1.29.351.258.785.387 1.301.387.502 0 .978-.118 1.43-.355.452-.237.928-.584 1.43-1.043v-2.903c-.874.115-1.612.251-2.214.409-.602.158-1.086.344-1.451.559-.366.215-.627.462-.785.742-.158.28-.237.584-.237.914m9.08-2.365c0-.874.136-1.652.409-2.333.272-.681.638-1.258 1.096-1.731.459-.473.993-.831 1.602-1.075.609-.244 1.251-.365 1.924-.365.688 0 1.279.125 1.774.376.495.251.921.541 1.279.871l-.881 1.139c-.315-.272-.641-.494-.978-.666-.337-.172-.713-.258-1.129-.258-.473 0-.91.097-1.311.29-.401.194-.745.469-1.032.828-.287.358-.512.785-.677 1.279-.165.495-.247 1.043-.247 1.645 0 .602.079 1.147.236 1.634.158.487.376.907.656 1.258.28.351.62.623 1.021.817.401.194.838.29 1.311.29.502 0 .957-.104 1.365-.312.409-.208.77-.455 1.086-.742l.796 1.161c-.473.416-1 .745-1.58.989-.581.244-1.186.366-1.817.366-.688 0-1.333-.122-1.935-.366-.602-.244-1.122-.598-1.559-1.064-.437-.466-.781-1.039-1.032-1.72-.251-.681-.376-1.451-.376-2.311m10.946-3.806h-1.548v-1.333l1.634-.108.215-2.924h1.484v2.924h2.816v1.441h-2.816v5.805c0 .645.118 1.143.355 1.494.237.351.656.527 1.258.527.186 0 .387-.029.602-.086.215-.057.409-.122.58-.194l.344 1.333c-.287.1-.598.19-.935.269-.337.079-.67.118-1 .118-.559 0-1.028-.086-1.408-.258-.38-.172-.688-.408-.925-.709-.237-.301-.405-.666-.505-1.097-.1-.43-.151-.903-.151-1.419v-5.784m10.669 3.806c0-.874.136-1.652.409-2.333.272-.681.638-1.258 1.096-1.731.459-.473.993-.831 1.602-1.075.609-.244 1.251-.365 1.924-.365.688 0 1.279.125 1.774.376.495.251.921.541 1.279.871l-.882 1.139c-.315-.272-.641-.494-.978-.666-.337-.172-.713-.258-1.129-.258-.473 0-.91.097-1.312.29-.401.194-.745.469-1.032.828-.287.358-.512.785-.677 1.279-.165.495-.247 1.043-.247 1.645 0 .602.079 1.147.237 1.634.158.487.376.907.656 1.258.28.351.62.623 1.021.817.401.194.838.29 1.312.29.502 0 .957-.104 1.365-.312.409-.208.77-.455 1.086-.742l.796 1.161c-.473.416-1 .745-1.58.989-.581.244-1.186.366-1.817.366-.688 0-1.333-.122-1.935-.366-.602-.244-1.122-.598-1.559-1.064-.437-.466-.781-1.039-1.032-1.72-.251-.681-.376-1.451-.376-2.311m9.42 0c0-.874.133-1.652.398-2.333.265-.681.62-1.258 1.064-1.731.444-.473.957-.831 1.537-1.075.581-.244 1.193-.365 1.838-.365.645 0 1.258.122 1.838.365.581.244 1.093.602 1.537 1.075.444.473.799 1.05 1.064 1.731.265.681.398 1.458.398 2.333 0 .86-.133 1.63-.398 2.311-.265.681-.62 1.254-1.064 1.72-.444.466-.957.821-1.537 1.064-.581.244-1.193.366-1.838.366-.645 0-1.258-.122-1.838-.366-.581-.244-1.093-.598-1.537-1.064-.444-.466-.799-1.039-1.064-1.72-.265-.681-.398-1.451-.398-2.311m1.827 0c0 .602.072 1.147.215 1.634.143.487.348.907.613 1.258.265.351.584.623.957.817.373.194.781.29 1.225.29.444 0 .853-.097 1.226-.29.373-.194.692-.466.957-.817.265-.351.469-.77.613-1.258.143-.487.215-1.032.215-1.634 0-.602-.072-1.15-.215-1.645-.143-.495-.348-.921-.613-1.279-.265-.358-.584-.634-.957-.828-.373-.194-.781-.29-1.226-.29-.444 0-.853.097-1.225.29-.373.194-.692.469-.957.828-.265.358-.469.785-.613 1.279-.143.495-.215 1.043-.215 1.645m10.667-5.246h1.462l.151 1.505h.065c.459-.502.957-.921 1.494-1.258.538-.337 1.122-.505 1.752-.505.803 0 1.43.176 1.881.527.452.351.785.842 1 1.473.545-.602 1.093-1.086 1.645-1.451.552-.366 1.15-.548 1.795-.548 1.075 0 1.874.344 2.397 1.032.523.688.785 1.706.785 3.053v6.622h-1.763v-6.385c0-.989-.158-1.702-.473-2.139-.315-.437-.803-.656-1.462-.656-.788 0-1.663.537-2.623 1.612v7.568h-1.763v-6.385c0-.989-.158-1.702-.473-2.139-.315-.437-.81-.656-1.484-.656-.788 0-1.663.537-2.623 1.612v7.568h-1.763v-10.449m19.654 11.331v3.526h-1.763v-14.856h1.462l.15 1.204h.065c.473-.401.993-.745 1.559-1.032.566-.287 1.157-.43 1.774-.43.674 0 1.268.125 1.784.376.516.251.946.609 1.29 1.075.344.466.606 1.025.785 1.677.179.652.269 1.387.269 2.204 0 .889-.122 1.681-.365 2.376-.244.695-.573 1.286-.989 1.774-.416.487-.896.856-1.44 1.107-.545.251-1.118.376-1.72.376-.487 0-.971-.107-1.451-.323-.48-.215-.964-.509-1.451-.882l.043 1.828m0-3.203c.473.401.932.684 1.376.849.444.165.838.247 1.183.247.43 0 .828-.097 1.193-.29.366-.194.681-.466.946-.817.265-.351.473-.785.624-1.301.151-.516.226-1.096.226-1.742 0-.573-.05-1.096-.151-1.569-.1-.473-.262-.878-.484-1.215-.222-.337-.509-.598-.86-.785-.351-.186-.77-.28-1.258-.28-.444 0-.892.122-1.344.366-.452.244-.935.595-1.451 1.053v5.483m9.463-2.881c0-.874.133-1.652.398-2.333.265-.681.62-1.258 1.064-1.731.444-.473.957-.831 1.537-1.075.581-.244 1.193-.365 1.838-.365.645 0 1.258.122 1.838.365.581.244 1.093.602 1.537 1.075.444.473.799 1.05 1.064 1.731.265.681.398 1.458.398 2.333 0 .86-.133 1.63-.398 2.311-.265.681-.62 1.254-1.064 1.72-.444.466-.957.821-1.537 1.064-.581.244-1.193.366-1.838.366-.645 0-1.258-.122-1.838-.366-.581-.244-1.093-.598-1.537-1.064-.444-.466-.799-1.039-1.064-1.72-.265-.681-.398-1.451-.398-2.311m1.827 0c0 .602.072 1.147.215 1.634.143.487.348.907.613 1.258.265.351.584.623.957.817.373.194.781.29 1.226.29.444 0 .853-.097 1.226-.29.373-.194.692-.466.957-.817.265-.351.469-.77.613-1.258.143-.487.215-1.032.215-1.634 0-.602-.072-1.15-.215-1.645-.143-.495-.348-.921-.613-1.279-.265-.358-.584-.634-.957-.828-.373-.194-.781-.29-1.226-.29-.444 0-.853.097-1.226.29-.373.194-.692.469-.957.828-.265.358-.469.785-.613 1.279-.143.495-.215 1.043-.215 1.645m10.667-5.246h1.462l.15 1.505h.065c.502-.502 1.028-.921 1.58-1.258.552-.337 1.193-.505 1.924-.505 1.104 0 1.91.344 2.419 1.032.509.688.763 1.706.763 3.053v6.622h-1.763v-6.385c0-.989-.158-1.702-.473-2.139-.315-.437-.817-.656-1.505-.656-.545 0-1.025.136-1.441.409-.416.272-.889.674-1.419 1.204v7.568h-1.763v-10.449m11.05 5.246c0-.86.133-1.63.398-2.311.265-.681.616-1.258 1.053-1.731.437-.473.935-.835 1.494-1.086.559-.251 1.139-.376 1.741-.376.659 0 1.251.115 1.774.344.523.229.96.559 1.311.989.351.43.62.946.806 1.548.186.602.279 1.276.279 2.02 0 .387-.021.709-.065.968h-7.05c.072 1.132.419 2.028 1.043 2.688.624.659 1.437.989 2.44.989.502 0 .964-.075 1.387-.226.423-.151.828-.348 1.215-.591l.623 1.161c-.459.287-.967.537-1.526.752-.559.215-1.197.323-1.913.323-.702 0-1.358-.125-1.967-.376-.609-.251-1.139-.609-1.591-1.075-.452-.466-.806-1.036-1.064-1.709-.258-.674-.387-1.44-.387-2.3m7.31-.796c0-1.075-.226-1.896-.677-2.462-.452-.566-1.086-.849-1.903-.849-.373 0-.727.075-1.064.226-.337.151-.641.365-.914.645-.272.28-.498.623-.677 1.032-.179.409-.297.878-.355 1.408h5.59m4.195-4.451h1.462l.15 1.505h.065c.502-.502 1.028-.921 1.58-1.258.552-.337 1.193-.505 1.924-.505 1.104 0 1.91.344 2.419 1.032.509.688.763 1.706.763 3.053v6.622h-1.763v-6.385c0-.989-.158-1.702-.473-2.139-.315-.437-.817-.656-1.505-.656-.545 0-1.025.136-1.441.409-.416.272-.889.674-1.419 1.204v7.568h-1.763v-10.449m12.13 1.441h-1.548v-1.333l1.634-.108.215-2.924h1.483v2.924h2.816v1.441h-2.816v5.805c0 .645.118 1.143.355 1.494.237.351.656.527 1.258.527.186 0 .387-.029.602-.086.215-.057.409-.122.58-.194l.344 1.333c-.287.1-.598.19-.935.269-.337.079-.67.118-1 .118-.559 0-1.028-.086-1.408-.258-.38-.172-.688-.408-.925-.709-.237-.301-.405-.666-.505-1.097-.1-.43-.151-.903-.151-1.419v-5.784m6.754 6.644c.459.373.928.674 1.408.903.48.229 1.036.344 1.666.344.688 0 1.204-.158 1.548-.473.344-.315.516-.702.516-1.161 0-.272-.072-.509-.215-.71-.143-.201-.326-.376-.548-.527-.222-.151-.477-.283-.763-.398-.287-.115-.573-.229-.86-.344-.373-.129-.745-.276-1.118-.441-.373-.165-.706-.365-1-.602-.294-.237-.534-.512-.72-.828-.186-.315-.279-.695-.279-1.139 0-.416.082-.806.247-1.172.165-.366.401-.681.709-.946.308-.265.684-.473 1.129-.623.444-.151.946-.226 1.505-.226.659 0 1.265.115 1.817.344.552.229 1.028.509 1.43.839l-.838 1.118c-.358-.272-.731-.494-1.118-.666-.387-.172-.81-.258-1.268-.258-.659 0-1.143.15-1.451.451-.308.301-.462.652-.462 1.053 0 .244.064.451.193.623.129.172.301.33.516.473.215.143.462.269.742.376.28.108.57.219.871.333.373.143.749.294 1.129.451.38.158.72.355 1.021.591.301.237.548.527.742.871.194.344.29.76.29 1.247 0 .43-.082.831-.247 1.204-.165.373-.408.702-.731.989-.323.287-.724.512-1.204.677-.48.165-1.028.247-1.645.247-.745 0-1.455-.136-2.128-.409-.674-.272-1.261-.616-1.763-1.032l.882-1.183" fill="#7b79a6"/></g></svg>
