<?xml version="1.0" encoding="UTF-8" standalone="no"?>
<svg width="20px" height="20px" viewBox="0 0 20 20" version="1.1" xmlns="http://www.w3.org/2000/svg" xmlns:xlink="http://www.w3.org/1999/xlink" xmlns:sketch="http://www.bohemiancoding.com/sketch/ns">
    <!-- Generator: Sketch 3.2.1 (9977) - http://www.bohemiancoding.com/sketch -->
    <title>logo</title>
    <desc>Created with Sketch.</desc>
    <defs></defs>
    <g id="Page-1" stroke="none" stroke-width="1" fill="none" fill-rule="evenodd" sketch:type="MSPage">
        <g id="logo" sketch:type="MSArtboardGroup" fill="#FFFFFF">
            <circle id="nucleus" sketch:type="MSShapeGroup" cx="10" cy="10" r="1.81818182"></circle>
            <path d="M13.4116152,11.969697 C16.0893595,7.33170789 16.7326679,2.6900115 14.8484848,1.6021779 C12.9643018,0.514344305 9.26612901,3.39231395 6.58838477,8.03030303 C3.91064053,12.6682921 3.26733209,17.3099885 5.15151515,18.3978221 C7.03569821,19.4856557 10.733871,16.607686 13.4116152,11.969697 Z M7.45441018,8.53030303 C9.88011175,4.32886467 13.1558531,1.77963704 14.3484848,2.46820331 C15.5411166,3.15676957 14.9712914,7.26825861 12.5455898,11.469697 C10.1198883,15.6711353 6.8441469,18.220363 5.65151515,17.5317967 C4.4588834,16.8432304 5.02870861,12.7317414 7.45441018,8.53030303 Z" id="trajectory" sketch:type="MSShapeGroup"></path>
            <path d="M13.4116152,8.03030303 C10.733871,3.39231395 7.03569821,0.514344305 5.15151515,1.6021779 C3.26733209,2.6900115 3.91064053,7.33170789 6.58838477,11.969697 C9.26612901,16.607686 12.9643018,19.4856557 14.8484848,18.3978221 C16.7326679,17.3099885 16.0893595,12.6682921 13.4116152,8.03030303 Z M7.45441018,11.469697 C5.02870861,7.26825861 4.4588834,3.15676957 5.65151515,2.46820331 C6.8441469,1.77963704 10.1198883,4.32886467 12.5455898,8.53030303 C14.9712914,12.7317414 15.5411166,16.8432304 14.3484848,17.5317967 C13.1558531,18.220363 9.88011175,15.6711353 7.45441018,11.469697 Z" id="trajectory" sketch:type="MSShapeGroup"></path>
            <path d="M10,6.06060606 C4.64451152,6.06060606 0.303030303,7.8243328 0.303030303,10 C0.303030303,12.1756672 4.64451152,13.9393939 10,13.9393939 C15.3554885,13.9393939 19.6969697,12.1756672 19.6969697,10 C19.6969697,7.8243328 15.3554885,6.06060606 10,6.06060606 Z M10,12.9393939 C5.14859686,12.9393939 1.3030303,11.3771325 1.3030303,10 C1.3030303,8.62286747 5.14859686,7.06060606 10,7.06060606 C14.8514031,7.06060606 18.6969697,8.62286747 18.6969697,10 C18.6969697,11.3771325 14.8514031,12.9393939 10,12.9393939 Z" id="trajectory" sketch:type="MSShapeGroup"></path>
        </g>
    </g>
</svg>