<svg viewBox="0 0 48 48" xmlns="http://www.w3.org/2000/svg"><g fill="none" fill-rule="evenodd"><path d="m0 0h48v48h-48v-48m3.692 3.692v18.462h3.698v-7.349h11.03v-3.711h-11.03v-3.71h14.763v-3.691h-18.462m31.34 36.35l5.501-6.972v11.241h3.777v-18.462h-3.688l-5.59 7.375-5.516-7.375h-3.669v18.462h3.725c0 0 0-11.221 0-11.221l5.459 6.953m-2.146-22c-.669-.283-1.245-.67-1.731-1.164-.488-.495-.869-1.079-1.146-1.755-.276-.674-.415-1.404-.415-2.192 0-.788.139-1.518.415-2.192.277-.676.658-1.259 1.146-1.755.486-.494 1.063-.884 1.733-1.171.664-.284 1.385-.427 2.169-.427.783 0 1.502.142 2.162.426.667.287 1.241.677 1.728 1.171.488.495.869 1.079 1.146 1.755.276.674.415 1.404.415 2.192 0 .788-.139 1.518-.415 2.192-.277.676-.658 1.259-1.146 1.755-.486.494-1.06.882-1.726 1.165-.66.281-1.38.422-2.164.422-.785 0-1.507-.141-2.171-.422m4.698 3.794c.796-.213 1.537-.517 2.223-.913.686-.396 1.306-.872 1.86-1.43.553-.557 1.026-1.179 1.417-1.865.391-.685.693-1.424.906-2.215.213-.793.32-1.623.32-2.489 0-.865-.106-1.697-.32-2.494-.213-.795-.515-1.535-.906-2.217-.391-.682-.863-1.301-1.416-1.858-.553-.557-1.174-1.034-1.86-1.43-.686-.395-1.427-.7-2.223-.913-.797-.213-1.633-.32-2.505-.32-.873 0-1.708.106-2.505.32-.796.213-1.537.517-2.223.913-.686.395-1.307.872-1.864 1.428-.557.557-1.032 1.177-1.423 1.859-.392.683-.692 1.423-.901 2.219-.209.796-.313 1.627-.313 2.491 0 1.298.233 2.512.701 3.637.466 1.122 1.112 2.1 1.935 2.931.824.832 1.802 1.485 2.929 1.956 1.129.472 2.353.707 3.666.707.873 0 1.708-.106 2.505-.32m-33.89 4.01v18.462h3.654v-6.872h5.181c0 .007 4.471 6.872 4.471 6.872h5.156l-5.292-7.471c0 0 .678-.298.983-.49.524-.33.969-.728 1.331-1.193.362-.465.637-.987.826-1.563.176-.538.281-1.397.281-2.108 0-.567-.07-1.093-.213-1.576-.14-.477-.333-.914-.579-1.308-.246-.395-.538-.746-.875-1.05-.328-.296-.682-.551-1.062-.766-.375-.208-.767-.374-1.179-.498-.399-.12-.812-.214-1.238-.28-.421-.065-.854-.108-1.298-.129-.433-.02-.872-.03-1.316-.03h-8.829m3.654 7.343v-3.667h5.279c.723 0 1.322.028 1.796.084.433.051.808.162 1.128.332.291.157.517.363.684.618.114.175.235.508.235.746 0 .179-.09.589-.169.745-.114.227-.269.414-.469.565-.272.197-.612.344-1.016.434-.432.096-.975.145-1.627.145h-5.842" fill="#aaa"/></g></svg>