<svg viewBox="0 0 610 110" xmlns="http://www.w3.org/2000/svg" xmlns:xlink="http://www.w3.org/1999/xlink"><defs><path id="0" d="m0 .432h598.2v94.51h-598.2"/><mask id="1" fill="#fff"><use xlink:href="#0"/></mask></defs><g fill="none" fill-rule="evenodd" transform="translate(8 7)"><path d="m10.3 91.03c30.795-19.78 65.7-5.551 83.09 3.971-24.08-9.512-59.4-11.743-83.09-3.971" fill="#c4c5c7"/><g fill="#aaa"><path d="m17.824 79.53c-5 3.694-7.823 6.81-7.823 6.81 0 .134 2.909-1.63 7.823-3.703v-3.107m0-12.268c-3.245-6.282-2.126-13.412-2.126-13.412 0 0-5.493 12.593 2.126 20.09v-6.681m0-33.459v11.44c-5.073 2.916-8.482 8.343-8.482 14.558 0 6.214 3.409 11.64 8.482 14.557v2.041c-2.044 1.382-4.04 2.856-5.687 4.121-7.302-4.658-12.137-12.765-12.137-21.988 0-11.451 7.45-21.18 17.824-24.729m0 11.44v-11.44c2.353-.804 4.854-1.29 7.455-1.406-.134 1.306-.203 2.632-.203 3.975 0 2.254.196 4.463.57 6.613-2.843.12-5.505.927-7.822 2.258m0 31.16c1.79-1.21 3.618-2.351 5.292-3.22-.818-.52-1.583-1.114-2.273-1.793-1.285-1.262-2.269-2.67-3.02-4.124v6.681l.197.195c.321.303.659.586 1 .85-.41-.195-.811-.406-1.202-.63v2.041m0 6.238v-3.107c9.625-7.105 27.336-16.35 48.63-9.677 32.362 10.14 52.958 23.936 77.966 17.727 25.01-6.208 27.22-19.868 27.22-19.868 0 0-4.415 19.292-29.06 23.526-24.639 4.234-47.34-.513-76.21-11.275-19.485-7.264-38.34-1.63-48.55 2.674m46.538-82.2c14.797 0 27.532 8.724 33.22 21.246h-11.577c-5.109-6.303-12.966-10.342-21.779-10.342-8.666 0-16.409 3.903-21.523 10.03.275-.219.554-.436.848-.645 12.1-8.636 28.23.882 28.23.882 0 0-15.331-4.431-25.698 2.835-10.364 7.268-8.698 21.817-8.698 21.817 0 0-.068-.193-.173-.543.043.167.088.333.135.501-2.486-1.831-5.5-3.03-8.78-3.341-.391-2.11-.597-4.282-.597-6.502 0-19.848 16.292-35.937 36.39-35.937" mask="url(#1)"/><path d="m99.22 74.61c0 0 15.446 7.907 29.972 6.62 14.526-1.288 18.94-6.436 18.94-6.436 0 0-5.333 9.838-19.307 10.389-13.976.552-29.605-10.205-29.605-10.573" mask="url(#1)"/><path d="m87.37 24.648h12.985v12.983h-12.985v-12.983" mask="url(#1)"/><path d="m138.94 60.62h10.04v10.04h-10.04v-10.04" mask="url(#1)"/><path d="m103.02 12.752h17.313v17.311h-17.313v-17.311" mask="url(#1)"/><path d="m153.28 42.71h17.315v17.311h-17.315v-17.311" mask="url(#1)"/><path d="m121.99 31.394h9.652v9.65h-9.652v-9.65" mask="url(#1)"/><path d="m128.45 50.41h9.652v9.65h-9.652v-9.65" mask="url(#1)"/><path d="m108.13 51.37h9.653v9.652h-9.653v-9.652" mask="url(#1)"/><path d="m141.97 31.726h9.652v9.652h-9.652v-9.652" mask="url(#1)"/><path d="m238.62 51.05c0-3.03-.408-5.747-1.222-8.153-.815-2.406-1.973-4.442-3.475-6.11-1.503-1.667-3.329-2.946-5.48-3.837-2.151-.891-4.576-1.337-7.274-1.337h-10.73v38.872h10.73c2.698 0 5.123-.444 7.274-1.336 2.151-.89 3.977-2.17 5.48-3.837 1.502-1.667 2.66-3.705 3.475-6.11.814-2.406 1.222-5.123 1.222-8.152m10.501 0c0 4.047-.675 7.764-2.024 11.149-1.35 3.387-3.246 6.301-5.69 8.745-2.444 2.444-5.384 4.34-8.821 5.69-3.436 1.349-7.242 2.023-11.417 2.023h-21.08v-55.22h21.08c4.175 0 7.981.681 11.417 2.043 3.437 1.362 6.377 3.259 8.821 5.689 2.444 2.431 4.34 5.34 5.69 8.725 1.349 3.387 2.024 7.103 2.024 11.151" mask="url(#1)"/><path d="m253.44 39.48h9.431v39.18h-9.431v-39.18m10.844-11.417c0 .815-.166 1.579-.496 2.291-.331.713-.771 1.337-1.318 1.871-.548.535-1.19.962-1.928 1.279-.739.319-1.527.478-2.368.478-.815 0-1.584-.159-2.31-.478-.725-.317-1.355-.744-1.89-1.279-.534-.534-.961-1.158-1.279-1.871-.318-.712-.477-1.476-.477-2.291 0-.84.159-1.629.477-2.367.318-.739.745-1.375 1.279-1.909.535-.535 1.165-.961 1.89-1.28.726-.318 1.495-.477 2.31-.477.841 0 1.629.159 2.368.477.738.319 1.38.745 1.928 1.28.547.534.987 1.17 1.318 1.909.33.738.496 1.527.496 2.367" mask="url(#1)"/><path d="m283.26 58.11c1.171 0 2.189-.158 3.055-.476.865-.319 1.584-.758 2.157-1.318.573-.559 1.01-1.234 1.299-2.024.292-.788.439-1.654.439-2.597 0-1.933-.58-3.468-1.738-4.6-1.158-1.133-2.896-1.701-5.212-1.701-2.317 0-4.054.568-5.212 1.701-1.159 1.132-1.737 2.667-1.737 4.6 0 .917.146 1.771.439 2.559.292.79.725 1.47 1.298 2.043.573.573 1.298 1.018 2.177 1.337.878.318 1.89.476 3.035.476m10.348 22.19c0-.78-.229-1.416-.687-1.91-.458-.494-1.083-.876-1.871-1.15-.79-.273-1.713-.475-2.769-.604-1.056-.13-2.176-.196-3.36-.196h-3.666c-1.26 0-2.476-.139-3.646-.42-1.069.586-1.929 1.28-2.578 2.081-.649.802-.973 1.725-.973 2.769 0 .687.172 1.33.515 1.928.344.598.891 1.114 1.642 1.547.75.432 1.725.769 2.921 1.01 1.197.242 2.66.364 4.391.364 1.757 0 3.271-.137 4.544-.41 1.273-.273 2.323-.65 3.151-1.13.827-.482 1.432-1.053 1.814-1.716.382-.663.572-1.385.572-2.164m-10.348-41.51c1.681 0 3.259.172 4.735.516 1.476.343 2.826.846 4.048 1.508h11.265v3.513c0 .586-.154 1.044-.459 1.375-.305.331-.827.56-1.566.687l-3.512.649c.253.662.451 1.362.591 2.101.14.738.21 1.514.21 2.329 0 1.934-.388 3.684-1.164 5.25-.777 1.565-1.846 2.896-3.208 3.99-1.362 1.095-2.978 1.941-4.849 2.54-1.871.598-3.902.896-6.091.896-1.477 0-2.915-.138-4.315-.42-1.222.745-1.833 1.579-1.833 2.5 0 .796.363 1.379 1.089 1.752.725.371 1.68.633 2.864.788 1.183.154 2.526.23 4.03.23 1.502 0 3.042.065 4.62.191 1.579.128 3.119.352 4.621.671 1.502.32 2.845.824 4.03 1.514 1.184.69 2.138 1.628 2.864 2.815.725 1.188 1.089 2.714 1.089 4.579 0 1.736-.427 3.421-1.28 5.056-.853 1.634-2.087 3.09-3.704 4.367-1.617 1.277-3.596 2.305-5.937 3.084-2.343.78-5.02 1.169-8.02 1.169-2.978 0-5.563-.287-7.752-.859-2.189-.573-4-1.337-5.441-2.291-1.439-.955-2.514-2.057-3.227-3.304-.713-1.247-1.069-2.545-1.069-3.894 0-1.833.56-3.373 1.68-4.62 1.12-1.248 2.673-2.241 4.659-2.979-.968-.534-1.744-1.247-2.329-2.139-.586-.89-.879-2.048-.879-3.474 0-.585.102-1.19.306-1.814.203-.624.515-1.241.935-1.852.42-.611.948-1.19 1.585-1.738.636-.546 1.387-1.037 2.253-1.469-1.986-1.07-3.546-2.495-4.678-4.278-1.133-1.781-1.699-3.869-1.699-6.261 0-1.935.388-3.685 1.164-5.251.777-1.566 1.858-2.902 3.246-4.01 1.388-1.106 3.03-1.953 4.926-2.539 1.896-.585 3.965-.878 6.205-.878" mask="url(#1)"/><path d="m306.01 39.48h9.431v39.18h-9.431v-39.18m10.845-11.417c0 .815-.166 1.579-.498 2.291-.33.713-.769 1.337-1.316 1.871-.547.535-1.19.962-1.928 1.279-.74.319-1.527.478-2.367.478-.816 0-1.586-.159-2.311-.478-.726-.317-1.355-.744-1.89-1.279-.535-.534-.961-1.158-1.279-1.871-.319-.712-.477-1.476-.477-2.291 0-.84.158-1.629.477-2.367.318-.739.744-1.375 1.279-1.909.535-.535 1.164-.961 1.89-1.28.725-.318 1.495-.477 2.311-.477.84 0 1.627.159 2.367.477.738.319 1.381.745 1.928 1.28.547.534.986 1.17 1.316 1.909.332.738.498 1.527.498 2.367" mask="url(#1)"/><path d="m335.15 79.27c-3.386 0-5.995-.96-7.828-2.883-1.833-1.921-2.75-4.576-2.75-7.961v-21.88h-3.97c-.51 0-.95-.165-1.318-.497-.369-.33-.554-.827-.554-1.489v-3.742l6.301-1.031 1.986-10.692c.101-.509.337-.903.706-1.183.369-.281.834-.421 1.394-.421h4.887v12.334h10.31v6.721h-10.31v21.23c0 1.222.306 2.177.917 2.865.611.687 1.426 1.03 2.443 1.03.586 0 1.075-.069 1.471-.21.395-.14.738-.286 1.031-.439.292-.153.554-.298.782-.439.23-.14.458-.21.688-.21.28 0 .509.07.687.21.178.141.369.351.573.63l2.826 4.582c-1.375 1.145-2.953 2.01-4.735 2.597-1.783.585-3.627.878-5.537.878" mask="url(#1)"/><path d="m360.39 72.78c.967 0 1.858-.087 2.673-.262.814-.176 1.584-.439 2.31-.789.726-.352 1.426-.784 2.101-1.297.673-.514 1.355-1.122 2.042-1.824v-6.557c-2.749 0-5.05.173-6.892.518-1.847.347-3.329.789-4.449 1.327-1.12.54-1.915 1.167-2.386 1.885-.472.718-.707 1.5-.707 2.346 0 1.667.49 2.859 1.471 3.577.979.718 2.259 1.076 3.837 1.076m18.329 5.881h-4.239c-.891 0-1.591-.134-2.1-.401-.51-.267-.892-.808-1.146-1.622l-.839-2.788c-.994.891-1.967 1.674-2.921 2.348-.955.675-1.943 1.242-2.96 1.699-1.019.458-2.1.802-3.245 1.032-1.146.228-2.419.343-3.82.343-1.654 0-3.181-.223-4.582-.669-1.4-.448-2.602-1.119-3.608-2.01-1.01-.894-1.788-2-2.349-3.333-.559-1.328-.84-2.874-.84-4.637 0-1.481.388-2.943 1.165-4.387.777-1.442 2.068-2.745 3.876-3.907 1.807-1.162 4.213-2.127 7.217-2.892 3-.767 6.733-1.15 11.188-1.15v-2.308c0-2.643-.554-4.599-1.661-5.869-1.107-1.269-2.717-1.904-4.831-1.904-1.527 0-2.8.179-3.818.534-1.018.358-1.903.758-2.653 1.203-.752.446-1.446.847-2.081 1.204-.637.356-1.337.534-2.101.534-.637 0-1.183-.165-1.641-.496-.459-.331-.829-.739-1.108-1.222l-1.719-3.02c4.506-4.124 9.941-6.186 16.305-6.186 2.291 0 4.334.376 6.129 1.126 1.795.752 3.315 1.795 4.563 3.132 1.247 1.336 2.196 2.934 2.845 4.792.65 1.858.974 3.894.974 6.109v24.744" mask="url(#1)"/><path d="m384.79 21.915h9.432v56.743h-9.432v-56.743" mask="url(#1)"/><path d="m444.01 51.05c0-3.03-.401-5.747-1.202-8.153-.802-2.406-1.955-4.448-3.457-6.128-1.501-1.681-3.328-2.966-5.479-3.857-2.151-.891-4.576-1.337-7.274-1.337-2.699 0-5.13.446-7.293 1.337-2.164.891-4 2.176-5.518 3.857-1.516 1.68-2.68 3.722-3.494 6.128-.816 2.406-1.222 5.123-1.222 8.153 0 3.03.406 5.746 1.222 8.152.814 2.405 1.978 4.443 3.494 6.11 1.514 1.667 3.354 2.947 5.518 3.837 2.163.892 4.594 1.336 7.293 1.336 2.698 0 5.123-.444 7.274-1.336 2.151-.89 3.978-2.17 5.479-3.837 1.502-1.667 2.655-3.705 3.457-6.11.801-2.406 1.202-5.123 1.202-8.152m10.539 0c0 4.047-.675 7.796-2.024 11.245-1.349 3.45-3.246 6.434-5.689 8.954-2.444 2.521-5.384 4.487-8.82 5.899-3.438 1.414-7.244 2.12-11.418 2.12-4.175 0-7.988-.706-11.437-2.12-3.449-1.412-6.402-3.378-8.858-5.899-2.457-2.52-4.36-5.504-5.709-8.954-1.35-3.449-2.024-7.198-2.024-11.245 0-4.048.674-7.796 2.024-11.246 1.349-3.449 3.252-6.434 5.709-8.955 2.456-2.52 5.409-4.486 8.858-5.899 3.449-1.413 7.262-2.119 11.437-2.119 4.174 0 7.98.713 11.418 2.138 3.436 1.426 6.376 3.393 8.82 5.9 2.443 2.507 4.34 5.486 5.689 8.935 1.349 3.45 2.024 7.198 2.024 11.246" mask="url(#1)"/><path d="m485.83 47.767c-.28.356-.554.636-.82.839-.268.204-.656.306-1.165.306-.484 0-.954-.146-1.413-.439-.458-.292-1.01-.623-1.642-.993-.637-.369-1.393-.7-2.271-.993-.879-.292-1.967-.439-3.266-.439-1.654 0-3.105.3-4.353.897-1.248.599-2.285 1.458-3.112 2.578-.827 1.121-1.445 2.476-1.851 4.067-.409 1.591-.612 3.392-.612 5.403 0 2.088.223 3.946.668 5.575.446 1.629 1.089 2.997 1.929 4.105.84 1.107 1.857 1.947 3.055 2.52 1.196.573 2.545.859 4.048.859 1.501 0 2.716-.184 3.646-.554.929-.368 1.712-.775 2.349-1.222.635-.445 1.189-.852 1.661-1.221.47-.37.998-.554 1.584-.554.763 0 1.337.293 1.718.878l2.711 3.436c-1.044 1.223-2.176 2.248-3.398 3.075-1.222.828-2.488 1.489-3.8 1.985-1.31.497-2.667.847-4.066 1.051-1.401.203-2.787.305-4.162.305-2.419 0-4.697-.453-6.835-1.356-2.139-.903-4-2.221-5.594-3.952-1.592-1.731-2.852-3.85-3.78-6.358-.93-2.506-1.395-5.365-1.395-8.572 0-2.877.414-5.543 1.241-8 .828-2.456 2.043-4.582 3.647-6.377 1.604-1.794 3.59-3.201 5.957-4.219 2.367-1.018 5.091-1.527 8.172-1.527 2.927 0 5.492.471 7.694 1.412 2.201.943 4.181 2.291 5.938 4.048l-2.483 3.437" mask="url(#1)"/><path d="m507.29 45.629c-2.749 0-4.901.776-6.453 2.329-1.554 1.553-2.546 3.755-2.979 6.605h17.718c0-1.221-.166-2.373-.496-3.456-.332-1.081-.841-2.029-1.528-2.844-.687-.815-1.553-1.457-2.596-1.928-1.045-.471-2.266-.706-3.666-.706m-.191-6.759c2.469 0 4.741.395 6.816 1.183 2.074.79 3.862 1.942 5.365 3.456 1.501 1.514 2.673 3.374 3.513 5.575.84 2.202 1.26 4.716 1.26 7.542 0 .713-.032 1.305-.095 1.775-.064.471-.179.84-.344 1.108-.166.266-.388.458-.669.572-.28.114-.635.172-1.068.172h-24.21c.28 4.02 1.362 6.976 3.246 8.859 1.884 1.884 4.378 2.826 7.485 2.826 1.527 0 2.844-.178 3.952-.535 1.107-.356 2.074-.751 2.901-1.183.827-.433 1.553-.828 2.177-1.185.624-.355 1.228-.534 1.814-.534.382 0 .712.076.992.229.281.153.522.37.726.649l2.749 3.436c-1.044 1.223-2.214 2.248-3.513 3.075-1.297.828-2.653 1.489-4.066 1.985-1.413.497-2.852.847-4.315 1.051-1.464.203-2.883.305-4.257.305-2.725 0-5.258-.453-7.6-1.356-2.342-.903-4.378-2.239-6.109-4.01-1.732-1.769-3.093-3.958-4.086-6.568-.992-2.609-1.489-5.632-1.489-9.07 0-2.672.432-5.186 1.298-7.542.866-2.354 2.107-4.403 3.723-6.147 1.616-1.744 3.59-3.125 5.919-4.143 2.329-1.018 4.957-1.527 7.885-1.527" mask="url(#1)"/><path d="m540.28 72.78c.968 0 1.859-.087 2.673-.262.815-.176 1.585-.439 2.311-.789.725-.352 1.426-.784 2.1-1.297.674-.514 1.356-1.122 2.042-1.824v-6.557c-2.749 0-5.05.173-6.891.518-1.847.347-3.329.789-4.449 1.327-1.121.54-1.916 1.167-2.386 1.885-.472.718-.707 1.5-.707 2.346 0 1.667.49 2.859 1.47 3.577.98.718 2.259 1.076 3.837 1.076m18.329 5.881h-4.238c-.891 0-1.592-.134-2.1-.401-.51-.267-.892-.808-1.146-1.622l-.84-2.788c-.993.891-1.967 1.674-2.921 2.348-.955.675-1.942 1.242-2.96 1.699-1.018.458-2.099.802-3.245 1.032-1.145.228-2.419.343-3.819.343-1.654 0-3.182-.223-4.582-.669-1.4-.448-2.603-1.119-3.608-2.01-1.01-.894-1.789-2-2.349-3.333-.56-1.328-.84-2.874-.84-4.637 0-1.481.388-2.943 1.165-4.387.776-1.442 2.067-2.745 3.876-3.907 1.807-1.162 4.213-2.127 7.217-2.892 3-.767 6.732-1.15 11.187-1.15v-2.308c0-2.643-.553-4.599-1.66-5.869-1.107-1.269-2.718-1.904-4.831-1.904-1.527 0-2.801.179-3.818.534-1.019.358-1.904.758-2.654 1.203-.751.446-1.445.847-2.081 1.204-.636.356-1.337.534-2.1.534-.637 0-1.184-.165-1.642-.496-.459-.331-.828-.739-1.107-1.222l-1.719-3.02c4.506-4.124 9.94-6.186 16.305-6.186 2.291 0 4.334.376 6.129 1.126 1.795.752 3.315 1.795 4.563 3.132 1.247 1.336 2.195 2.934 2.845 4.792.649 1.858.973 3.894.973 6.109v24.744" mask="url(#1)"/><path d="m564.07 78.66v-39.18h5.767c1.222 0 2.023.573 2.405 1.719l.65 3.093c.788-.814 1.623-1.553 2.501-2.215.878-.662 1.807-1.234 2.787-1.718.98-.484 2.03-.853 3.15-1.108 1.12-.254 2.342-.381 3.666-.381 2.139 0 4.03.362 5.69 1.088 1.654.725 3.036 1.744 4.143 3.055 1.107 1.311 1.947 2.877 2.52 4.696.573 1.82.859 3.825.859 6.01v24.934h-9.432v-24.934c0-2.393-.553-4.245-1.661-5.556-1.107-1.312-2.768-1.967-4.983-1.967-1.629 0-3.156.369-4.582 1.108-1.426.738-2.774 1.744-4.048 3.02v28.333h-9.432" mask="url(#1)"/></g></g></svg>